<svg xmlns="http://www.w3.org/2000/svg" viewBox="0 0 24 24"><path fill="#FFFF" d="M20.246,3.754V3.067a2.062,2.062,0,0,0-4.123,0v.687H14.061V3.067a2.061,2.061,0,0,0-4.122,0v.687H7.877V3.067a2.062,2.062,0,0,0-4.123,0v.687A2.751,2.751,0,0,0,1.006,6.5V20.246a2.751,2.751,0,0,0,2.748,2.748H20.246a2.751,2.751,0,0,0,2.748-2.748V6.5A2.751,2.751,0,0,0,20.246,3.754Zm-3.092-.687a1.031,1.031,0,1,1,2.061,0V5.386a1.031,1.031,0,1,1-2.061,0Zm-6.185,0a1.031,1.031,0,1,1,2.062,0V5.386a1.031,1.031,0,1,1-2.062,0Zm-6.184,0a1.031,1.031,0,1,1,2.061,0V5.386a1.031,1.031,0,1,1-2.061,0ZM21.964,20.246a1.72,1.72,0,0,1-1.718,1.718H3.754a1.72,1.72,0,0,1-1.718-1.718V6.5A1.72,1.72,0,0,1,3.754,4.785v.6a2.062,2.062,0,1,0,4.123,0v-.6H9.939v.6a2.061,2.061,0,1,0,4.122,0v-.6h2.062v.6a2.062,2.062,0,1,0,4.123,0v-.6A1.72,1.72,0,0,1,21.964,6.5Z"/><path fill="#FFFF" d="M15,10.349h0a2.768,2.768,0,0,0-3,.64,2.768,2.768,0,0,0-3-.64,3.066,3.066,0,0,0-1.724,2.044,2.688,2.688,0,0,0,.463,2.3c.718.929,3.79,3.683,3.92,3.8a.514.514,0,0,0,.688,0c.13-.117,3.2-2.871,3.92-3.8a2.688,2.688,0,0,0,.463-2.3A3.066,3.066,0,0,0,15,10.349Zm.445,3.714A47.223,47.223,0,0,1,12,17.415a47.016,47.016,0,0,1-3.448-3.352,1.667,1.667,0,0,1-.278-1.424,2.036,2.036,0,0,1,1.153-1.353,1.312,1.312,0,0,1,.559-.124,2.467,2.467,0,0,1,1.616.882.515.515,0,0,0,.4.188h0a.518.518,0,0,0,.4-.186c.043-.052,1.073-1.269,2.175-.76a2.035,2.035,0,0,1,1.154,1.353A1.667,1.667,0,0,1,15.448,14.063Z"/></svg>
