<svg width="21" height="18" viewBox="0 0 21 18" fill="none" xmlns="http://www.w3.org/2000/svg">
<path d="M20.8222 4.64096C20.5811 3.71794 20.1295 2.86053 19.5014 2.13327C18.8732 1.40601 18.0848 0.827856 17.1956 0.442322C14.136 -0.933223 11.4695 1.26335 10.4999 2.21903C9.53311 1.26054 6.86091 -0.936028 3.8041 0.442322C2.9149 0.827856 2.12654 1.40601 1.49837 2.13327C0.870206 2.86053 0.418597 3.71794 0.177544 4.64096C-0.0330873 5.43736 -0.0566368 6.27021 0.108667 7.07682C0.273972 7.88343 0.623824 8.6428 1.1319 9.2978C2.76194 11.3691 9.87 17.6119 10.1716 17.8765C10.2617 17.956 10.3786 18 10.4999 18C10.6211 18 10.7381 17.956 10.8282 17.8765C11.1297 17.6119 18.2378 11.3691 19.8678 9.2978C20.3761 8.6429 20.7261 7.88353 20.8914 7.07688C21.0567 6.27023 21.033 5.43735 20.8222 4.64096Z" fill="white"/>
</svg>
