<svg xmlns="http://www.w3.org/2000/svg" viewBox="0 0 24 24"><path fill="#FFFF" d="M22.9,14.161a3.532,3.532,0,0,0-1.119-1.8l.039-.047a5.818,5.818,0,0,0,1-4.98,6.736,6.736,0,0,0-3.8-4.49c-3.2-1.471-6,.878-7.016,1.9-1.013-1.025-3.812-3.375-7.016-1.9a6.736,6.736,0,0,0-3.8,4.49,5.815,5.815,0,0,0,1,4.98c1.708,2.215,9.156,8.891,9.472,9.174a.514.514,0,0,0,.688,0s.968-.867,2.288-2.079c1.119,1.053,2.181,2,2.264,2.079a.513.513,0,0,0,.687,0c.159-.142,3.9-3.5,4.769-4.621A3.166,3.166,0,0,0,22.9,14.161ZM12,20.415c-1.512-1.364-7.552-6.848-9-8.726a4.794,4.794,0,0,1-.812-4.105,5.712,5.712,0,0,1,3.226-3.8A3.906,3.906,0,0,1,7.057,3.42c2.512,0,4.521,2.39,4.545,2.42a.518.518,0,0,0,.4.187h0a.516.516,0,0,0,.4-.188c.029-.035,2.957-3.538,6.188-2.055a5.712,5.712,0,0,1,3.226,3.8A4.8,4.8,0,0,1,21,11.689l-.072.091c-.024-.013-.048-.025-.073-.036a3.31,3.31,0,0,0-3.615.83,3.31,3.31,0,0,0-3.616-.83,3.622,3.622,0,0,0-2.041,2.417,3.343,3.343,0,0,0-.1.724c-.039,1.656,1.112,2.576,2.4,3.816C13.063,19.455,12.385,20.069,12,20.415Zm9.536-4.174a59.823,59.823,0,0,1-4.3,4.174c-.477-.432-1.378-1.254-2.245-2.077l0,0c-1.526-1.449-2.508-2.221-2.476-3.434a2.4,2.4,0,0,1,.067-.493,2.6,2.6,0,0,1,1.471-1.727c1.464-.672,2.92,1.075,2.787.956a.518.518,0,0,0,.4.188h0a.517.517,0,0,0,.4-.187,2.465,2.465,0,0,1,2.788-.957A2.717,2.717,0,0,1,21.9,14.408,2.144,2.144,0,0,1,21.536,16.241Z"/><path fill="#FFFF" d="M6.346,5A4.39,4.39,0,0,0,3.873,7.928,3.818,3.818,0,0,0,4.529,11.2a.515.515,0,0,0,.816-.629,2.792,2.792,0,0,1-.471-2.392,3.364,3.364,0,0,1,1.9-2.237A.515.515,0,0,0,6.346,5Z"/></svg>
