<svg xmlns="http://www.w3.org/2000/svg" viewBox="0 0 24 24"><path fill="#FFFF" d="M22.71,6.627l-5.7-2.867c-.14-1.5-.752-1.946-1.114-2.074-.339-.36-.647-.685-3.9-.677C8.3,1,8.324,1.45,8.1,1.686c-.362.127-.975.576-1.115,2.074L1.29,6.627a.517.517,0,0,0-.284.461V22.479a.516.516,0,0,0,.515.515H22.479a.516.516,0,0,0,.515-.515V7.088A.517.517,0,0,0,22.71,6.627ZM15.527,4.372c.1-.128.187-.253.27-.378.052-.079.1-.157.148-.234.012-.019.027-.04.038-.06a8.023,8.023,0,0,1-1.231,4.657c-.565-.43-1.262-.945-1.849-1.333a19.91,19.91,0,0,0,2.5-2.494C15.45,4.477,15.487,4.425,15.527,4.372ZM8.8,2.439c.325-.5,2.2-.387,3.2-.4,2.843-.015,3.044.161,3.2.4.517.8-2.468,3.383-3.2,3.994C11.282,5.833,8.294,3.232,8.8,2.439Zm4.04,5.792-.437.848h-.8l-.437-.848c.217-.154.608-.425.839-.56C12.26,7.823,12.663,8.108,12.839,8.231ZM8.016,3.7A15.232,15.232,0,0,0,11.1,7.024c-.592.392-1.282.9-1.849,1.333A8.072,8.072,0,0,1,8.016,3.7ZM2.036,21.963V7.405L6.514,5.151,3.75,10.8A.515.515,0,0,0,4,11.5L6.27,12.515l-1.179,1.9a.52.52,0,0,0-.049.44l2.448,7.1Zm6.544,0L6.1,14.754l1.36-2.2a.514.514,0,0,0,.055-.422.523.523,0,0,0-.282-.32L4.91,10.776,7.2,6.1A13.036,13.036,0,0,0,8.6,9.3c.516,4.516-.315-2.75,1.449,12.667Zm1.591-7.988L9.642,9.354c.3-.227.3-.226.675-.509l.434.842Zm2.744,7.988h-1.83l-.437-3.823,1.086-8.03h.532l1.086,8.03Zm.334-12.276.434-.842c.34.252.546.41.675.508l-.529,4.622ZM15.42,21.963H13.952L15.4,9.3a12.349,12.349,0,0,0,1.4-3.2l2.288,4.677-2.319,1.039a.523.523,0,0,0-.282.32.514.514,0,0,0,.055.422l1.36,2.2Zm6.544,0H16.51l2.448-7.1a.52.52,0,0,0-.049-.44l-1.179-1.9L20,11.5a.515.515,0,0,0,.252-.7L17.486,5.151l4.478,2.254Z"/></svg>
