<svg xmlns="http://www.w3.org/2000/svg" viewBox="0 0 24 24"><path fill="#FFFF" d="M20.675,1.006H3.325A2.321,2.321,0,0,0,1.006,3.325v17.35a2.321,2.321,0,0,0,2.319,2.319h17.35a2.321,2.321,0,0,0,2.319-2.319V3.325A2.321,2.321,0,0,0,20.675,1.006Zm1.289,19.669a1.29,1.29,0,0,1-1.289,1.289H3.325a1.29,1.29,0,0,1-1.289-1.289V3.325A1.29,1.29,0,0,1,3.325,2.036h17.35a1.29,1.29,0,0,1,1.289,1.289Z"/><path fill="#FFFF" d="M12,3.754A8.246,8.246,0,1,0,20.246,12,8.255,8.255,0,0,0,12,3.754Zm0,15.461A7.215,7.215,0,1,1,19.215,12,7.222,7.222,0,0,1,12,19.215Z"/><path fill="#FFFF" d="M14.405,12a2.4,2.4,0,1,0-2.4,2.4A2.408,2.408,0,0,0,14.405,12Zm-3.779,0A1.374,1.374,0,1,1,12,13.374,1.375,1.375,0,0,1,10.626,12Z"/><path fill="#FFFF" d="M17.5,11.485a.515.515,0,0,0-.515.515A4.988,4.988,0,0,1,12,16.982a.516.516,0,0,0,0,1.031A6.019,6.019,0,0,0,18.013,12,.515.515,0,0,0,17.5,11.485Z"/><path fill="#FFFF" d="M12.515,6.5A.515.515,0,0,0,12,5.987,6.019,6.019,0,0,0,5.987,12a.516.516,0,0,0,1.031,0A4.988,4.988,0,0,1,12,7.018.515.515,0,0,0,12.515,6.5Z"/><path fill="#FFFF" d="M19.73,18.013a1.718,1.718,0,1,0,1.718,1.717A1.719,1.719,0,0,0,19.73,18.013Zm0,2.4a.687.687,0,1,1,.688-.687A.688.688,0,0,1,19.73,20.417Z"/></svg>
