<svg xmlns="http://www.w3.org/2000/svg" viewBox="0 0 24 24"><path fill="#FFFF" d="M22.8,9.362,20.246,7.354V1.521a.516.516,0,0,0-.516-.515H4.27a.516.516,0,0,0-.516.515V7.354L1.2,9.362a.58.58,0,0,0-.2.4V22.479a.516.516,0,0,0,.515.515H22.479a.516.516,0,0,0,.515-.515V9.767A.62.62,0,0,0,22.8,9.362Zm-2.552-.7,1.4,1.1-.954.75-.446.351ZM4.785,7.6V2.036h14.43v9.643L12,17.357,4.785,11.679ZM3.754,8.665v2.2l-.446-.351-.954-.75Zm18.21,13.3H2.036V10.828l9.645,7.589a.514.514,0,0,0,.638,0l9.645-7.589Z"/><path fill="#FFFF" d="M12.344,12.986c.13-.117,3.2-2.871,3.92-3.8a2.688,2.688,0,0,0,.463-2.3A3.064,3.064,0,0,0,15,4.842a2.771,2.771,0,0,0-3,.64,2.767,2.767,0,0,0-3-.64A3.064,3.064,0,0,0,7.273,6.886a2.688,2.688,0,0,0,.463,2.3c.717.929,3.79,3.683,3.92,3.8a.514.514,0,0,0,.688,0ZM8.553,8.556a1.659,1.659,0,0,1-.279-1.423A2.036,2.036,0,0,1,9.428,5.779a1.94,1.94,0,0,1,2.174.758.515.515,0,0,0,.4.188h0a.519.519,0,0,0,.4-.186c.044-.052,1.073-1.267,2.175-.76a2.036,2.036,0,0,1,1.154,1.354,1.662,1.662,0,0,1-.278,1.423A47.214,47.214,0,0,1,12,11.909,46.767,46.767,0,0,1,8.553,8.556Z"/></svg>
