<svg xmlns="http://www.w3.org/2000/svg" viewBox="0 0 24 24"><path fill="#FFFF" d="M22.479,8.441H19.845c0-.008.01-.013.013-.02a3.633,3.633,0,0,0-.726-3.54,2.577,2.577,0,0,0-2.615-1.064c-2,.483-3.728,2.867-4.517,4.124C11.211,6.684,9.484,4.3,7.483,3.817A2.579,2.579,0,0,0,4.868,4.881a3.633,3.633,0,0,0-.726,3.54c0,.007.01.012.013.02H1.521a.516.516,0,0,0-.515.515V12a.515.515,0,0,0,.515.515H2.38V19.73a.516.516,0,0,0,.515.516h18.21a.516.516,0,0,0,.515-.516V12.515h.859A.515.515,0,0,0,22.994,12V8.956A.516.516,0,0,0,22.479,8.441Zm-5.72-3.622a1.629,1.629,0,0,1,1.572.711,2.666,2.666,0,0,1,.6,2.447c-.054.115-.22.464-.914.464H12.9C13.723,7.147,15.247,5.184,16.759,4.819ZM5.669,5.53a1.6,1.6,0,0,1,1.572-.711c1.611.389,3.127,2.474,3.854,3.622H5.987c-.694,0-.86-.349-.914-.464A2.666,2.666,0,0,1,5.669,5.53Zm14.92,13.685H3.411v-6.7H20.589Zm1.375-7.73H2.036V9.472H21.964Z"/><path fill="#FFFF" d="M11.656,18.19a.517.517,0,0,0,.688,0,27.975,27.975,0,0,0,2.069-2.01,1.646,1.646,0,0,0,.285-1.407,1.839,1.839,0,0,0-1.034-1.228A1.613,1.613,0,0,0,12,13.782a1.617,1.617,0,0,0-1.664-.237A1.839,1.839,0,0,0,9.3,14.773a1.646,1.646,0,0,0,.285,1.407A27.975,27.975,0,0,0,11.656,18.19ZM10.3,15.02a.813.813,0,0,1,.463-.538.431.431,0,0,1,.183-.039,1.065,1.065,0,0,1,.653.366.533.533,0,0,0,.8,0c0-.006.442-.508.836-.327a.813.813,0,0,1,.463.538.617.617,0,0,1-.1.53A21.188,21.188,0,0,1,12,17.111a21.188,21.188,0,0,1-1.6-1.561A.617.617,0,0,1,10.3,15.02Z"/></svg>
