<svg xmlns="http://www.w3.org/2000/svg" viewBox="0 0 24 24"><path fill="#FFFF" d="M12,1.006C8.2,1.006,3.754,3.36,3.754,10c0,6.53,7.6,12.63,7.926,12.887a.517.517,0,0,0,.64,0c.324-.257,7.926-6.357,7.926-12.887C20.246,3.36,15.8,1.006,12,1.006Zm0,20.8C10.563,20.58,4.785,15.309,4.785,10c0-5.875,3.887-7.96,7.215-7.96S19.215,4.121,19.215,10C19.215,15.3,13.437,20.578,12,21.808Z"/><path fill="#FFFF" d="M14.334,6.288h0A2.177,2.177,0,0,0,12,6.726a2.177,2.177,0,0,0-2.334-.438A2.452,2.452,0,0,0,8.287,7.925a2.166,2.166,0,0,0,.375,1.852,40.722,40.722,0,0,0,2.994,2.905.514.514,0,0,0,.688,0,40.722,40.722,0,0,0,2.994-2.905,2.166,2.166,0,0,0,.375-1.852A2.452,2.452,0,0,0,14.334,6.288Zm.188,2.86A34.288,34.288,0,0,1,12,11.6,34.288,34.288,0,0,1,9.478,9.148a1.145,1.145,0,0,1-.19-.977,1.427,1.427,0,0,1,.808-.946c.759-.348,1.4.5,1.506.543a.533.533,0,0,0,.8,0c.008-.009.743-.894,1.506-.543a1.427,1.427,0,0,1,.808.946A1.145,1.145,0,0,1,14.522,9.148Z"/></svg>
