<svg width="37" height="43" viewBox="0 0 37 43" fill="none" xmlns="http://www.w3.org/2000/svg">
<path d="M36.7386 18.59C36.8315 18.4889 36.9023 18.3697 36.9467 18.2398C36.9911 18.1099 37.008 17.9722 36.9964 17.8354C35.6668 1.84803 31.0312 0 27.6484 0C24.2655 0 19.63 1.84803 18.3003 17.8354C18.2886 17.9721 18.3054 18.1098 18.3497 18.2396C18.394 18.3695 18.4648 18.4887 18.5576 18.5898C18.6505 18.6908 18.7633 18.7714 18.8889 18.8264C19.0146 18.8815 19.1503 18.9098 19.2875 18.9095H22.1431C19.8251 24.3171 18.7462 30.175 18.9854 36.0538C18.9854 36.184 19.011 36.3129 19.0608 36.4332C19.1106 36.5535 19.1836 36.6628 19.2756 36.7549C19.3676 36.8469 19.4769 36.9199 19.5971 36.9698C19.7173 37.0196 19.8462 37.0452 19.9764 37.0452H23.1572V41.3361C23.1684 41.5917 23.2778 41.8332 23.4626 42.0101C23.6474 42.187 23.8933 42.2857 24.1491 42.2857C24.4049 42.2857 24.6508 42.187 24.8356 42.0101C25.0204 41.8332 25.1298 41.5917 25.1411 41.3361V37.0452H30.1538V41.3361C30.165 41.5917 30.2745 41.8332 30.4593 42.0101C30.6441 42.187 30.89 42.2857 31.1457 42.2857C31.4015 42.2857 31.6474 42.187 31.8322 42.0101C32.017 41.8332 32.1264 41.5917 32.1377 41.3361V37.0452H35.3185C35.5813 37.0452 35.8334 36.9408 36.0192 36.7549C36.2051 36.5689 36.3095 36.3168 36.3095 36.0538C36.5512 30.1759 35.4763 24.3183 33.1633 18.9095H36.017C36.1528 18.9087 36.2869 18.8799 36.411 18.8249C36.5352 18.7699 36.6467 18.6899 36.7386 18.59ZM27.6484 1.98278C28.2954 1.98278 28.9278 2.17471 29.4658 2.5343C30.0037 2.89389 30.423 3.405 30.6706 4.00298C30.9182 4.60096 30.983 5.25896 30.8568 5.89377C30.7306 6.52858 30.419 7.11169 29.9615 7.56937C29.504 8.02704 28.9211 8.33872 28.2866 8.46499C27.652 8.59126 26.9943 8.52646 26.3965 8.27876C25.7988 8.03107 25.2879 7.61162 24.9284 7.07346C24.569 6.53529 24.3771 5.90257 24.3771 5.25533C24.3771 4.38739 24.7218 3.55501 25.3353 2.94128C25.9487 2.32756 26.7808 1.98278 27.6484 1.98278ZM34.3179 35.0625H20.977C21.129 25.4816 23.4593 20.3918 24.6966 18.3513C24.762 18.2454 24.8216 18.1588 24.889 18.0625C25.2161 18.3725 25.576 18.7093 25.9762 19.077C26.4335 19.5002 27.0331 19.7359 27.6561 19.7373C27.9921 19.7337 28.3242 19.6638 28.6332 19.5316C28.9423 19.3995 29.2223 19.2077 29.4572 18.9673C29.8055 18.6439 30.1345 18.3397 30.4193 18.0645C30.4944 18.18 30.5694 18.2916 30.6541 18.4321L30.6733 18.4495C31.9299 20.5497 34.1736 25.5913 34.3179 35.0625ZM24.279 13.7678C24.5407 12.7033 25.6914 12.1046 26.819 13.2731C26.9145 13.4039 27.0392 13.5107 27.1832 13.5849C27.3272 13.6591 27.4864 13.6986 27.6484 13.7004C27.7955 13.7009 27.9408 13.6687 28.0739 13.6061C28.207 13.5435 28.3246 13.4521 28.4181 13.3385C28.4181 13.327 29.2917 12.3221 30.096 12.6879C30.3217 12.7859 30.5223 12.9338 30.6826 13.1205C30.8429 13.3073 30.9588 13.5279 31.0216 13.7659C31.3064 14.9324 29.8286 15.9277 27.989 17.6159C27.8967 17.6994 27.7767 17.7456 27.6522 17.7456C27.5278 17.7456 27.4078 17.6994 27.3155 17.6159C24.5272 15.0653 24.0635 14.6398 24.279 13.7678ZM32.0511 16.9287C31.9857 16.8267 31.9222 16.7362 31.8587 16.6419C31.8779 16.6207 31.8837 16.6111 31.9029 16.5918C32.1069 16.3743 32.2743 16.1856 32.3821 16.047C32.6769 15.6601 32.8802 15.2115 32.9769 14.7347C33.0735 14.2579 33.061 13.7655 32.9401 13.2942C32.8066 12.7663 32.555 12.2757 32.2043 11.8592C31.8537 11.4427 31.4131 11.1113 30.9158 10.8899C30.3799 10.6594 29.7907 10.5817 29.2134 10.6653C28.6361 10.7488 28.0932 10.9905 27.6445 11.3634C27.1959 10.9905 26.653 10.7488 26.0757 10.6653C25.4984 10.5817 24.9092 10.6594 24.3733 10.8899C23.8759 11.1116 23.4352 11.4433 23.0846 11.8602C22.7339 12.277 22.4824 12.768 22.349 13.2962C22.228 13.7667 22.2154 14.2587 22.3121 14.7348C22.4087 15.211 22.6121 15.659 22.907 16.0451C23.0148 16.1837 23.1803 16.3704 23.3842 16.588L23.4343 16.6457C23.3746 16.7304 23.3111 16.8382 23.2418 16.9287H20.3728C20.6024 13.367 21.3365 9.85601 22.5529 6.50082C22.8228 7.65113 23.4734 8.67645 24.399 9.41031C25.3247 10.1442 26.4711 10.5435 27.6522 10.5435C28.8333 10.5435 29.9798 10.1442 30.9054 9.41031C31.8311 8.67645 32.4817 7.65113 32.7515 6.50082C33.9672 9.85587 34.6988 13.3671 34.924 16.9287H32.0511Z" fill="white"/>
<path d="M12.9029 8.44592H12.8563C13.6205 7.52159 14.0408 6.3642 14.0466 5.16837C14.02 3.78861 13.4493 2.47427 12.4572 1.50783C11.4651 0.541397 10.1307 0 8.74078 0C7.35091 0 6.01651 0.541397 5.02437 1.50783C4.03223 2.47427 3.46154 3.78861 3.43495 5.16837C3.44173 6.36404 3.86194 7.52111 4.62525 8.44592H4.58059C3.97898 8.44567 3.38323 8.56313 2.82737 8.79161C2.27151 9.02008 1.76645 9.35508 1.34105 9.77746C0.915656 10.1998 0.578262 10.7013 0.348157 11.2532C0.118051 11.8051 -0.000254775 12.3967 4.1195e-07 12.994V21.0915C-8.64351e-08 21.355 0.105295 21.6078 0.292776 21.7943C0.480257 21.9808 0.734606 22.0858 1 22.0863H3.43495V41.2928C3.43547 41.5563 3.54126 41.8089 3.7291 41.995C3.91695 42.1812 4.1715 42.2857 4.4369 42.2857H13.0466C13.3117 42.2852 13.5657 42.1804 13.7532 41.9943C13.9406 41.8082 14.0461 41.556 14.0466 41.2928V22.0883H16.4835C16.6152 22.0883 16.7455 22.0625 16.8671 22.0123C16.9887 21.9622 17.0991 21.8887 17.192 21.7961C17.2849 21.7035 17.3585 21.5936 17.4085 21.4727C17.4585 21.3517 17.484 21.2222 17.4835 21.0915V12.994C17.484 12.3965 17.3659 11.8048 17.1359 11.2526C16.9059 10.7005 16.5686 10.1988 16.1431 9.77621C15.7177 9.35363 15.2126 9.01846 14.6566 8.78986C14.1006 8.56127 13.5047 8.44567 12.9029 8.44592ZM4.03301 10.5898C3.87592 10.9261 3.74983 11.2759 3.65631 11.6348C3.62719 11.7408 3.60194 11.8449 3.57864 11.951C3.48878 12.3603 3.44064 12.7776 3.43495 13.1964V20.1005H2V12.994C2.00213 12.4042 2.20866 11.8331 2.5849 11.3767C2.96114 10.9202 3.48414 10.6063 4.06602 10.4876C4.06602 10.5166 4.05049 10.5551 4.03301 10.5898ZM5.4369 13.1964C5.43529 12.3182 5.71625 11.4623 6.23884 10.7537L6.47379 10.4337H7.73981V20.1005H5.4369V13.1964ZM12.0388 40.3018H9.74175V24.0201C9.74771 23.8859 9.72623 23.7519 9.67861 23.6262C9.63099 23.5004 9.55822 23.3856 9.46469 23.2885C9.37115 23.1915 9.25879 23.1142 9.13438 23.0614C9.00996 23.0087 8.87607 22.9815 8.74078 22.9815C8.60549 22.9815 8.47161 23.0087 8.34719 23.0614C8.22278 23.1142 8.11042 23.1915 8.01688 23.2885C7.92334 23.3856 7.85057 23.5004 7.80296 23.6262C7.75534 23.7519 7.73386 23.8859 7.73981 24.0201V40.3018H5.4369V22.0883H12.0388V40.3018ZM12.0388 20.1005H9.74175V10.4337H11.0097L11.2447 10.7537C11.7675 11.4622 12.0485 12.3181 12.0466 13.1964L12.0388 20.1005ZM8.74175 8.44399C8.08888 8.44399 7.45067 8.25177 6.90783 7.89163C6.36499 7.53148 5.9419 7.0196 5.69205 6.4207C5.44221 5.82181 5.37684 5.1628 5.50421 4.52702C5.63158 3.89123 5.94596 3.30723 6.40761 2.84886C6.86926 2.39048 7.45744 2.07833 8.09777 1.95186C8.73809 1.82539 9.40181 1.8903 10.005 2.13837C10.6082 2.38644 11.1237 2.80653 11.4864 3.34553C11.8491 3.88452 12.0427 4.5182 12.0427 5.16644C12.0427 6.0357 11.6949 6.86936 11.0759 7.48402C10.4568 8.09868 9.61723 8.44399 8.74175 8.44399ZM15.4835 20.1005H14.0466V13.1964C14.042 12.7775 13.9939 12.3601 13.9029 11.951C13.8816 11.843 13.8544 11.7389 13.8272 11.6348C13.7346 11.2783 13.6092 10.9311 13.4524 10.5975C13.435 10.5609 13.4291 10.5185 13.4117 10.4819C13.751 10.5494 14.0732 10.6843 14.3588 10.8784C14.6444 11.0725 14.8876 11.3219 15.0738 11.6117C15.3412 12.0238 15.4835 12.5037 15.4835 12.994V20.1005Z" fill="white"/>
</svg>
